<?xml version="1.0" encoding="UTF-8" standalone="no"?>
<!-- Created with Inkscape (http://www.inkscape.org/) -->

<svg
   version="1.1"
   id="svg2"
   width="1024.0039"
   height="819.63739"
   viewBox="0 0 1024.0039 819.63739"
   sodipodi:docname="doodle.png"
   xmlns:inkscape="http://www.inkscape.org/namespaces/inkscape"
   xmlns:sodipodi="http://sodipodi.sourceforge.net/DTD/sodipodi-0.dtd"
   xmlns="http://www.w3.org/2000/svg"
   xmlns:svg="http://www.w3.org/2000/svg">
  <defs
     id="defs6" />
  <sodipodi:namedview
     id="namedview4"
     pagecolor="#ffffff"
     bordercolor="#000000"
     borderopacity="0.25"
     inkscape:showpageshadow="2"
     inkscape:pageopacity="0.0"
     inkscape:pagecheckerboard="0"
     inkscape:deskcolor="#d1d1d1"
     showgrid="false" />
  <g
     inkscape:groupmode="layer"
     inkscape:label="Image"
     id="g8"
     inkscape:export-filename="../../Projects/ruby/mariusavram/assets/doodle.svg"
     inkscape:export-xdpi="96"
     inkscape:export-ydpi="96"
     transform="translate(0,-37)">
    <path
       style="fill:#000000"
       d="m 365.21182,855.32756 c -0.51786,-1.00516 -0.73987,-2.39006 -0.49336,-3.07756 0.53878,-1.50259 -0.70711,-1.58501 -4.15336,-0.27475 -2.2356,0.84997 -2.5651,0.71234 -2.5651,-1.07143 0,-2.65768 -0.78055,-3.37399 -11.58393,-10.6305 -25.19915,-16.92599 -35.17359,-28.12523 -51.3873,-57.69735 -6.01553,-10.9717 -10.01595,-16.9138 -15.10564,-22.43742 C 276.11541,756.00618 273,751.91497 273,751.04697 c 0,-0.868 -0.83857,-3.14615 -1.86348,-5.06257 -1.42653,-2.66737 -2.65489,-3.60164 -5.23865,-3.9844 -7.474,-1.1072 -2.30564,-6.76361 6.23492,-6.82368 1.85197,-0.013 9.51467,-1.1701 17.02822,-2.57127 7.51356,-1.40117 19.66356,-3.26642 27,-4.14498 18.32247,-2.19419 19.3009,-2.8599 6.2912,-4.28042 -5.98887,-0.65393 -18.7781,-2.72888 -28.42053,-4.61101 C 284.38926,717.6865 271.325,715.18315 265,714.00563 c -6.325,-1.17752 -15.0258,-3.0916 -19.33512,-4.2535 -7.65184,-2.06314 -7.92564,-2.24585 -11.70471,-7.81078 -4.96177,-7.30654 -11.38745,-11.32702 -16.55412,-10.35775 -3.42548,0.64263 -6.68207,0.82986 -21.49502,1.23582 -5.47469,0.15004 -7.20474,0.64564 -10.23012,2.93058 -3.40366,2.57064 -3.60355,3.01974 -3.06464,6.88563 0.64965,4.66029 -0.58696,7.83436 -4.26403,10.94464 -2.45015,2.07249 -2.45304,2.09679 -0.7713,6.5 3.59808,9.42069 1.94115,13.48918 -9.69495,23.8052 -8.36074,7.41224 -9.18145,7.8891 -14.62196,8.49573 -3.17022,0.35349 -7.33606,0.18733 -9.25743,-0.36924 C 142.08523,751.45538 139.21545,751 137.62932,751 c -1.58614,0 -5.78148,-1.42648 -9.32299,-3.16996 -4.98402,-2.45362 -6.87604,-4.02644 -8.37271,-6.96016 C 118.87013,738.78527 118,736.36495 118,735.49141 c 0,-0.87355 -4.59268,-5.95398 -10.20596,-11.28984 -5.61327,-5.33586 -12.226068,-11.62753 -14.6951,-13.98149 -2.469032,-2.35395 -5.630781,-4.56644 -7.026109,-4.91665 -1.395327,-0.3502 -10.87003,-0.0982 -21.054895,0.56008 C 35.28876,707.7849 12.970144,708.9707 6.25,708.98588 0.81756397,708.99815 0,708.7566 0,707.13929 c 0,-2.20473 5.4204494,-3.10395 19,-3.15196 4.675,-0.0165 18.175,-0.68583 30,-1.48733 11.825,-0.8015 23.1875,-1.46689 25.25,-1.47864 2.936532,-0.0167 3.75,-0.41182 3.75,-1.82136 0,-1.81573 -1.778334,-4.2 -3.132612,-4.2 -0.402937,0 -1.018262,0.9 -1.367388,2 -1.232424,3.88302 -2.404282,1.92959 -2.24961,-3.75 0.139088,-5.10734 -0.754703,-13.56847 -1.792698,-16.97068 -0.285511,-0.93582 -1.374194,-0.87584 -4.665057,0.25698 -6.527241,2.2469 -8.637529,3.4456 -17.07207,9.69744 C 40.111402,691.87379 38,692.92838 38,691.08889 c 0,-1.04378 5.28435,-5.68166 7.213053,-6.33062 0.965939,-0.32502 1.007678,-0.78538 0.167337,-1.84565 -0.615785,-0.77694 -1.421191,-3.08687 -1.78979,-5.13318 -0.3686,-2.04631 -1.694109,-4.97131 -2.945577,-6.5 -4.590885,-5.60785 -6.939639,-10.60608 -8.275449,-17.61041 -1.704929,-8.93982 -1.744598,-14.33097 -0.113089,-15.36934 0.691066,-0.43983 3.728566,-3.71026 6.75,-7.26763 3.021433,-3.55737 7.240781,-8.28237 9.376329,-10.5 2.135548,-2.21763 6.044156,-7.23142 8.685797,-11.14175 3.707295,-5.48779 5.84171,-7.59796 9.356287,-9.25 C 68.929216,598.96314 71.653281,598 72.478375,598 c 0.825095,0 3.867499,-0.89977 6.760898,-1.9995 2.8934,-1.09972 7.068766,-1.99972 9.278592,-2 2.638939,-3.3e-4 5.282418,-0.85979 7.702472,-2.50425 2.026533,-1.37707 6.743493,-3.12899 10.482133,-3.89317 9.57579,-1.95728 36.60334,-3.00806 42.59481,-1.65599 4.47607,1.01009 5.02666,0.90761 8.22316,-1.53048 4.67742,-3.56764 9.60294,-3.63028 13.21831,-0.16809 1.51869,1.45434 5.01125,3.63093 7.76125,4.83686 6.56468,2.87876 11.95674,7.18887 13.42353,10.73001 0.64957,1.5682 1.72001,2.88528 2.37875,2.92685 0.65875,0.0416 3.80718,0.79157 6.99651,1.66667 3.18933,0.8751 6.69267,1.59109 7.78518,1.59109 2.99025,0 6.56264,2.73263 7.9495,6.08081 0.67966,1.64083 1.37748,2.84157 1.55074,2.66832 0.17325,-0.17325 1.69922,-8.85018 3.39105,-19.28207 3.69933,-22.81022 5.53078,-30.79425 12.11605,-52.81877 2.77124,-9.26843 4.88248,-17.00783 4.69165,-17.19866 -0.19083,-0.19083 -4.53368,-0.88389 -9.65077,-1.54013 -6.10197,-0.78255 -9.48608,-1.66814 -9.83343,-2.57332 -0.91286,-2.37889 1.92458,-17.50385 4.75306,-25.33618 1.48966,-4.125 4.63528,-13.35 6.99026,-20.5 4.10194,-12.45395 7.56045,-19.65836 39.84788,-83.00701 8.91517,-17.49175 21.01403,-37.04607 27.04515,-43.71067 4.60579,-5.08957 7.26749,-6.95412 15.56055,-10.90034 15.96772,-7.59818 26.54358,-11.53898 47.95132,-17.86773 34.84625,-10.30156 53.41932,-14.43458 78.55302,-17.4802 7.425,-0.89973 15.84323,-2.34351 18.70718,-3.20839 9.26758,-2.7987 11.0014,0.80451 1.96405,4.08168 -2.29418,0.83193 -10.24623,2.24392 -17.67123,3.13777 -37.79318,4.54966 -86.16295,17.22734 -118.22605,30.98693 -17.75846,7.6209 -19.51915,8.652 -19.95117,11.68396 -0.18555,1.30216 -1.51363,2.83428 -3.12372,3.60361 -5.58041,2.66644 -12.53084,14.22092 -37.70766,62.68569 -22.12354,42.58729 -23.37478,45.34677 -31.73786,69.9947 -7.22897,21.30545 -8.6964,27.88757 -6.6044,29.62377 0.74297,0.61662 1.35086,1.72063 1.35086,2.45336 0,0.76389 1.59981,1.59363 3.75,1.94495 2.0625,0.33699 5.02658,0.85172 6.58684,1.14384 2.13269,0.3993 3.20168,0.0102 4.3067,-1.56739 0.80843,-1.15419 2.39313,-2.09853 3.52157,-2.09853 1.68914,0 1.94083,0.44178 1.42425,2.5 -0.34511,1.375 -0.41779,2.5 -0.16152,2.5 0.25627,0 13.8851,4.01888 30.28629,8.93083 37.06681,11.10107 51.07342,14.95791 54.28587,14.94808 1.375,-0.004 4.75,0.53923 7.5,1.20763 2.75,0.6684 9.5,1.30688 15,1.41883 5.5,0.11195 10.8793,0.38154 11.954,0.59909 1.83652,0.37176 2.08412,-0.86702 4.11833,-20.60446 2.4693,-23.95905 4.53088,-32.8663 8.15678,-35.24208 3.90919,-2.56139 44.621,-3.92639 74.67949,-2.50387 25.45925,1.20486 94.63749,0.25364 126.0914,-1.73379 32.45587,-2.05074 64.39612,-1.25342 122.94305,3.06899 13.88732,1.02528 15.03456,0.97807 16.23836,-0.66822 1.12852,-1.54335 1.61286,-1.6015 3.7614,-0.45164 1.77217,0.94844 4.09688,1.1025 8.26164,0.54752 3.18755,-0.42476 7.37055,-0.68527 9.29555,-0.57891 8.84814,0.48887 29.15481,0.13614 59.46731,-1.03297 27.03931,-1.04287 37.19884,-1.03399 56.5,0.0494 12.94298,0.72648 31.47275,1.37143 41.17726,1.43324 22.90985,0.1459 24.09571,1.00367 21.12828,15.28267 -0.78063,3.75633 -1.15126,8.54721 -0.82361,10.64639 0.38715,2.48037 -0.1066,6.17496 -1.41018,10.55216 -1.10325,3.70451 -2.72553,10.537 -3.60507,15.18331 -0.87953,4.64631 -3.5447,13.65328 -5.92259,20.01548 -5.11679,13.69032 -7.42668,23.87252 -12.12143,53.43236 -1.92174,12.1 -5.04566,28.4636 -6.94203,36.36355 C 884.55158,660.76351 883,667.60446 883,668.06567 c 0,0.46121 2.00358,0.096 4.45241,-0.81161 4.16043,-1.54197 4.57545,-1.53883 6.32874,0.0479 2.93209,2.65351 14.41056,2.43833 94.21885,-1.7663 37.1541,-1.95743 36,-1.96852 36,0.34608 0,2.19771 -2.9089,2.51437 -38,4.13663 -11.825,0.54667 -28.25,1.44342 -36.5,1.99279 -8.25,0.54937 -26.79085,1.18166 -41.20188,1.4051 -14.41104,0.22344 -26.65687,0.68745 -27.21297,1.03114 -2.2569,1.39484 -4.97603,16.42764 -7.51602,41.55262 -1.54117,15.24495 -5.19658,34.44299 -8.56689,44.99298 -1.10123,3.44716 -2.01173,7.22144 -2.02333,8.38729 -0.0116,1.16585 -1.16864,5.26973 -2.5712,9.11973 -3.70183,10.16148 -4.45159,26.599 -1.5959,34.98781 2.13172,6.26211 1.67632,8.51219 -1.72281,8.51219 -0.91637,0 -3.44877,0.91756 -5.62756,2.03902 -6.39214,3.29014 -53.0278,8.28454 -111.46144,11.93686 -17.875,1.11725 -42.4,2.92424 -54.5,4.01554 -12.1,1.0913 -33.7,2.66753 -48,3.50272 -14.3,0.8352 -27.575,1.73651 -29.5,2.00292 -12.43599,1.72105 -48.097,2.8299 -97,3.01613 -34.922,0.13299 -60.51007,0.66128 -67,1.38327 -5.775,0.64246 -21.75,1.61121 -35.5,2.15278 -22.55277,0.88828 -35.98918,2.33399 -40.67331,4.37631 -1.12511,0.49055 -1.98177,0.13084 -2.61487,-1.09799 z M 382.5,849.09186 c 5.5,-0.55508 18.775,-1.29219 29.5,-1.63803 10.725,-0.34583 22.875,-1.05304 27,-1.57157 4.125,-0.51853 38.55,-1.35746 76.5,-1.86429 37.95,-0.50683 74.4,-1.37342 81,-1.92576 6.6,-0.55234 19.875,-1.50145 29.5,-2.10915 9.625,-0.60769 26.05,-1.76492 36.5,-2.57163 59.00661,-4.55512 71.27295,-5.45598 94.5,-6.9402 24.64754,-1.575 46.86372,-3.64215 74.92887,-6.97193 11.87497,-1.4089 13.69193,-1.8771 15.70225,-4.04628 1.25036,-1.34916 3.08237,-2.45285 4.07113,-2.45265 1.6566,3.5e-4 1.79775,-1.27556 1.79775,-16.25 0,-14.14784 0.28007,-17.02667 2.16465,-22.25037 1.19056,-3.3 2.86357,-8.925 3.71782,-12.5 0.85424,-3.575 2.23488,-9.2 3.06807,-12.5 3.91334,-15.49931 5.83046,-25.68733 6.66476,-35.41804 1.99349,-23.25076 4.50016,-38.13912 7.84275,-46.58196 2.83007,-7.14833 8.38884,-32.8409 12.01328,-55.52523 4.66469,-29.19505 7.64441,-42.26013 12.49117,-54.76961 1.98069,-5.11216 4.48691,-13.59919 5.56937,-18.86007 2.35275,-11.43451 2.34045,-11.22465 0.51485,-8.78622 -1.27678,1.70537 -1.28556,1.37408 -0.0723,-2.7276 2.4327,-8.22424 5.90604,-32.8508 4.7906,-33.96624 -0.60445,-0.60445 -10.24362,-1.14991 -23.88917,-1.35184 C 875.79414,495.32701 858.525,494.63469 850,493.9747 c -12.76497,-0.98824 -22.91105,-0.9112 -57.5,0.43658 -23.1,0.9001 -47.85,1.99839 -55,2.44063 -12.4161,0.76796 -22.49731,0.4441 -56,-1.79901 -55.05116,-3.68583 -66.51427,-3.67766 -142,0.10121 -14.33511,0.71762 -35.06516,0.82899 -59.5,0.31965 -52.35233,-1.09129 -67.16686,-1.10322 -85.29682,-0.0687 -13.27055,0.75723 -15.94271,1.174 -16.70912,2.60603 -0.8421,1.57348 -3.98061,27.12087 -5.54732,45.15499 -0.64694,7.44683 -0.60074,7.67564 1.61531,8 3.34348,0.48939 3.32406,1.96546 -0.0748,5.68674 -2.72008,2.97811 -3.12382,4.2904 -3.99352,12.98012 -1.91514,19.13545 -2.92556,42.59115 -1.86302,43.24784 0.56152,0.34704 1.27108,2.49583 1.5768,4.7751 0.45506,3.39273 0.25999,4.14412 -1.07583,4.14412 -2.15047,0 -2.2659,5.81939 -0.13167,6.63837 0.87445,0.33556 1.5,1.83315 1.5,3.59106 0,2.48638 -0.24825,2.80943 -1.41486,1.84123 -2.20677,-1.83145 -2.74774,7.48335 -2.31396,39.84291 0.37284,27.8133 0.42541,28.43005 2.48846,29.19322 1.90698,0.70544 2.0551,1.33231 1.55619,6.58643 -0.3277,3.45108 -1.17232,6.3012 -2.08199,7.02552 -2.78766,2.21967 0.28209,4.1589 7.10083,4.48574 5.40016,0.25884 6.16533,0.54374 6.16533,2.29552 0,1.69803 -0.87399,2.09391 -5.78864,2.62198 -3.18376,0.34208 -6.01403,0.84736 -6.28951,1.12283 -0.75767,0.75767 1.44963,13.93654 2.76442,16.50519 0.88948,1.73773 0.8525,2.80904 -0.16241,4.70542 -0.97817,1.82772 -1.08528,3.93674 -0.41898,8.25 1.31302,8.49988 0.61851,22.31753 -1.08881,21.66237 -0.73456,-0.28187 -1.57716,0.30748 -1.87275,1.30989 -1.35065,4.58039 -1.73949,18.52973 -0.71921,25.80156 1.03765,7.39569 0.98059,8.09046 -0.78022,9.5 -1.64953,1.32046 -1.97339,3.37277 -2.45884,15.58182 -0.3075,7.73359 -0.69993,14.65019 -0.87207,15.37024 -0.38019,1.59031 5.09533,5.04587 7.18702,4.53567 0.825,-0.20123 6,-0.82003 11.5,-1.37511 z m 235.148,-140.7772 c -1.40554,-1.40554 -8.28221,-3.28579 -12.148,-3.32157 -5.16683,-0.0478 -11.55508,-2.97636 -14.41016,-6.606 -1.7662,-2.24536 -2.11735,-3.62284 -1.62529,-6.37563 0.34522,-1.9313 0.75501,-5.08646 0.91065,-7.01146 0.15564,-1.925 0.35989,-4.02633 0.45389,-4.66963 0.094,-0.6433 2.42519,-1.91839 5.18043,-2.83353 C 600.964,675.85122 603,673.77885 603,670.38147 c 0,-3.73939 4.34193,-10.37873 11.93958,-18.2571 7.64907,-7.93167 7.94863,-8.42263 8.49514,-13.92298 0.31157,-3.13576 1.5275,-8.40139 2.70206,-11.70139 1.17456,-3.3 2.6172,-7.87201 3.20588,-10.16003 1.00842,-3.91948 1.47758,-4.3347 8.11383,-7.18101 10.33907,-4.43446 12.76253,-4.71544 18.15508,-2.10495 6.76741,3.27605 8.6538,6.86161 7.95418,15.11891 -0.31096,3.67011 -1.06679,8.84514 -1.67963,11.50008 -1.05938,4.58951 -0.96063,5.07425 2.00602,9.84658 1.71614,2.76069 4.92688,10.327 7.13499,16.81402 3.7228,10.93689 3.92637,12.08957 2.79937,15.85114 -1.16422,3.88584 -1.10198,4.13916 1.47907,6.01931 1.48193,1.07952 2.69443,2.7907 2.69443,3.80263 0,3.05557 -4.79899,7.78952 -12.35261,12.18522 -3.93107,2.28761 -8.39248,5.29674 -9.91426,6.68695 -3.12458,2.85444 -8.48109,3.11152 -12.09469,0.58046 -3.0014,-2.10227 -7.56231,-1.80642 -16.0437,1.04069 -8.0413,2.69938 -8.90454,2.85686 -9.94674,1.81466 z m 13.852,-7.92778 c 6.51111,-1.60166 12.66464,-1.09835 14.56488,1.19129 1.58135,1.90542 5.37389,1.80299 7.02776,-0.18979 0.73564,-0.8864 4.80957,-3.62902 9.05318,-6.09472 4.24361,-2.46571 8.51258,-5.3637 9.48661,-6.43999 1.7089,-1.88831 1.66951,-2.03779 -1.12404,-4.26528 l -2.89499,-2.30839 1.30225,-5.42839 c 1.26093,-5.25617 1.1881,-5.7569 -2.29568,-15.78334 -1.97886,-5.69522 -4.84039,-12.42794 -6.35895,-14.96161 -3.57173,-5.9593 -4.09845,-7.95301 -3.06639,-11.60666 1.91129,-6.76621 2.79177,-16.43575 1.71231,-18.80489 C 657.52097,612.65324 653.00934,610 649.22283,610 c -3.65568,0 -11.24514,3.26218 -13.57249,5.83387 -1.898,2.09727 -7.65034,16.32784 -7.65034,18.92599 0,1.19384 0.88604,0.77369 3.29761,-1.56369 3.27421,-3.17349 6.05516,-4.05243 7.16093,-2.26326 0.31711,0.5131 -0.88048,2.29464 -2.66131,3.95897 l -3.23788,3.02606 3.90658,1.63227 c 5.05812,2.11342 9.70051,0.9808 10.53903,-2.57123 0.82641,-3.50072 3.75391,-3.78789 4.59157,-0.45041 1.01283,4.03543 -3.04582,7.6239 -9.25749,8.18506 -3.75383,0.33912 -5.89972,-0.1076 -9.56869,-1.99193 -2.6013,-1.33599 -4.9638,-2.19491 -5.25,-1.90872 -0.28619,0.28619 -0.52035,1.81143 -0.52035,3.38942 0,1.81272 -0.92697,3.68432 -2.51768,5.08333 -11.37253,10.00197 -15.86197,16.07882 -17.46731,23.64352 -1.39246,6.56157 -2.19887,7.3894 -8.26501,8.48444 -4.23095,0.76376 -4.44551,1.1603 -2.05632,3.80032 1.60407,1.77248 1.55302,2.00192 -0.96486,4.33663 -2.0708,1.92015 -2.48395,2.96081 -1.8688,4.70724 1.11048,3.15271 8.59429,6.73885 14.10187,6.75743 2.49596,0.008 5.21311,0.46686 6.03811,1.01875 1.72592,1.15456 8.82774,0.4861 17.5,-1.64718 z m -10.88939,-6.28879 c -1.16265,-3.88134 -3.3025,-7.69972 -6.25033,-11.1532 -4.13927,-4.84928 -4.35698,-5.37355 -2.84367,-6.8481 1.5065,-1.46791 1.92244,-1.27395 5.15357,2.40321 4.04035,4.59809 6.94477,9.90273 8.80344,16.0786 1.38245,4.59352 1.16087,5.4214 -1.45103,5.4214 -1.14004,0 -2.1861,-1.80943 -3.41198,-5.90191 z m 23.49514,-0.9005 c -1.34642,-2.51581 0.98751,-7.14674 7.36282,-14.60912 5.01296,-5.86773 6.22282,-6.55626 7.17238,-4.08176 0.35279,0.91936 -1.42278,3.94047 -4.55482,7.75 -2.82314,3.43381 -5.48062,7.56268 -5.9055,9.17527 -0.9448,3.58589 -2.69488,4.34418 -4.07488,1.76561 z M 360.2126,836.75 c 0.11693,-3.4375 0.26448,-9.175 0.32788,-12.75 0.0634,-3.575 0.44627,-9.88225 0.85081,-14.01612 0.80257,-8.20135 0.44357,-8.92677 -6.57006,-13.27564 -1.47332,-0.91355 -4.11478,-4.35523 -5.8699,-7.64817 -1.75512,-3.29294 -4.14967,-6.6157 -5.32123,-7.38391 -1.17155,-0.76821 -5.2801,-4.67587 -9.1301,-8.6837 -3.85,-4.00783 -9.1375,-9.49213 -11.75,-12.18733 -7.60397,-7.84468 -6.19151,-12.51121 3.75,-12.38937 3.3,0.0404 9.6,-0.52029 14,-1.24607 4.4,-0.72578 11.04394,-1.72434 14.76431,-2.21902 9.49307,-1.26226 11.23396,-3.05409 10.34186,-10.64448 -0.37358,-3.17859 -1.0003,-6.07068 -1.39271,-6.42686 -1.59657,-1.44917 -82.13013,9.23278 -88.7449,11.77111 -2.02591,0.77741 -1.8383,2.2753 0.78518,6.26913 1.23544,1.88076 2.75605,4.27995 3.37913,5.33154 0.62307,1.05159 2.43301,3.33778 4.02207,5.08043 4.43466,4.86329 6.55764,8.21465 15.32098,24.18593 10.96865,19.99049 16.5173,27.73657 27.34442,38.17369 7.88275,7.5988 30.48531,24.30884 32.88096,24.30884 0.43928,0 0.89437,-2.8125 1.0113,-6.25 z m -0.24021,-44.80158 C 358.32865,788.87705 359.12866,785.5 361.5,785.5 c 3.12495,0 3.29346,-4.26275 0.19921,-5.03936 C 359.38184,779.87902 351,781.53291 351,782.57179 c 0,1.45036 5.12693,10.31673 6.21946,10.75575 2.97623,1.19595 3.88691,0.73973 2.75293,-1.37912 z M 352,776.99834 c 4.60122,-0.0533 5.57377,-1.45346 3.14992,-4.53487 C 353.96747,770.96022 353,768.87514 353,767.82996 c 0,-1.56892 -0.33732,-1.7198 -1.93426,-0.86514 -1.06384,0.56935 -3.28455,1.03518 -4.9349,1.03518 -1.65035,0 -4.22947,0.4672 -5.73137,1.03822 l -2.73072,1.03822 3.91562,4.01198 c 2.79962,2.86851 4.48566,3.85906 5.91563,3.47544 1.1,-0.2951 3.125,-0.54959 4.5,-0.56552 z m 12.21977,-5.95431 C 363.95015,769.207 364.21452,768 364.8865,768 c 0.61243,0 1.1135,-0.72314 1.1135,-1.60699 0,-1.05452 -0.5438,-1.39831 -1.58179,-1 -0.86998,0.33385 -2.39684,0.60699 -3.39301,0.60699 -3.07824,0 -3.24279,2.94908 -0.33636,6.02845 3.20354,3.39415 4.13544,3.13434 3.53093,-0.98442 z M 340.26972,764 c 3.5592,0 3.96355,-1.09815 1.67993,-4.56238 -1.06506,-1.61569 -1.93944,-4.00197 -1.94306,-5.30284 -0.006,-2.3045 -0.15422,-2.34481 -5.75659,-1.57004 -3.1625,0.43736 -6.9875,0.73232 -8.5,0.65548 -1.5125,-0.0768 -2.75,0.0985 -2.75,0.38955 0,0.29109 2.57205,3.40489 5.71567,6.91955 5.11641,5.72031 5.88479,6.23725 7.32874,4.93049 C 336.9316,764.65691 338.83299,764 340.26972,764 Z m 23.41518,-3.1192 c 1.56955,-0.624 2.26203,-1.32455 1.5651,-1.58333 -1.33625,-0.49616 -1.63418,-3.13274 -0.64522,-5.70994 0.33264,-0.86682 1.00764,-1.32707 1.5,-1.02277 C 366.59715,752.86906 367,752.19148 367,751.05902 367,749.23626 366.38458,749 361.63649,749 c -6.46524,0 -15.67972,1.64323 -17.0829,3.04641 -0.68891,0.68891 -0.25245,2.45728 1.35382,5.48514 L 348.27792,762 h 6.29594 c 3.46277,0 7.56274,-0.50364 9.11104,-1.1192 z M 158.5,748.148 c 1.65,-1.01448 6.03528,-4.66568 9.74506,-8.11376 8.01429,-7.44893 9.93864,-11.84454 7.36458,-16.82222 -2.04419,-3.95303 -2.06393,-8.5901 -0.0437,-10.26674 3.72812,-3.09407 5.80567,-10.97955 3.30062,-12.52775 -0.62339,-0.38528 -2.79986,-0.74934 -4.8366,-0.80902 l -3.70315,-0.10851 0.45273,10 c 0.37166,8.20914 0.81192,10.39293 2.45838,12.19408 1.61124,1.76263 1.86681,2.9425 1.29965,6 -1.07221,5.7801 -4.76048,9.77881 -12.6689,13.73523 C 155.12531,744.80288 154.18445,745 144.82581,745 134.16053,745 130.55125,743.85906 124.13353,738.4589 122.41009,737.00872 121,736.10956 121,736.46077 c 0,1.85035 3.12821,6.25965 5.16469,7.27977 11.8917,5.95683 26.56288,7.95659 32.33531,4.40746 z M 117,728.18856 c 0,-0.84331 -0.81585,-1.72776 -8.42892,-9.13766 C 106.05699,716.6039 104,713.99847 104,713.26107 c 0,-2.8533 -4.087745,-9.11238 -10.413128,-15.94437 -5.571277,-6.0175 -6.697335,-7.84347 -7.22898,-11.72225 -0.829506,-6.0519 1.032817,-6.07124 2.554893,-0.0265 0.784629,3.11604 2.491033,5.89787 5.368715,8.75225 2.320175,2.30137 5.87529,6.11939 7.90026,8.48447 2.21035,2.5816 4.60824,4.35242 6,4.43094 5.33836,0.30118 8.81824,-0.29854 8.81824,-1.51974 0,-0.70629 2.475,-3.72842 5.5,-6.71584 3.025,-2.98742 5.5,-5.72319 5.5,-6.07948 0,-0.35628 -1.04952,-1.72166 -2.33227,-3.03416 -3.66803,-3.7531 -5.51549,-7.83302 -6.96721,-15.38636 -1.68227,-8.7529 -1.50675,-19.25807 0.37315,-22.33316 3.0075,-4.91961 15.93455,-8.9902 28.9442,-9.11423 4.29496,-0.0409 6.33324,0.50146 9.19694,2.44739 2.0235,1.375 4.06468,2.5 4.53597,2.5 0.47129,0 2.40766,1.60076 4.30305,3.55725 l 3.44617,3.55724 -0.0408,11.3676 c -0.0396,11.02699 -0.29999,12.30275 -4.0517,19.84895 -1.97117,3.9648 -1.81857,4.41976 1.74491,5.20243 1.73382,0.38082 4.21522,1.83919 5.51422,3.24083 2.09901,2.26487 2.62478,2.4077 4.72509,1.28365 1.29981,-0.69564 3.38343,-3.44283 4.63026,-6.10489 1.97278,-4.21196 2.19904,-5.9291 1.74346,-13.23158 -0.70071,-11.23142 -3.04738,-15.36542 -13.33176,-23.48576 -4.36352,-3.44535 -10.75884,-8.73285 -14.21181,-11.75 C 151.21439,637.11027 149.24518,636 146.49218,636 c -5.38724,0 -19.5974,3.08135 -23.70234,5.13965 C 118.38048,643.35059 118,643.39504 118,641.69927 118,639.94844 126.32199,636 130.01216,636 h 2.95866 l -2.1234,-5.25 c -1.16786,-2.8875 -2.26673,-6.15 -2.44192,-7.25 -0.17519,-1.1 -1.26318,-7.26324 -2.41776,-13.69609 -1.15458,-6.43286 -1.96165,-13.85786 -1.79349,-16.5 L 124.5,588.5 119,588.73647 c -8.61883,0.37057 -17.18045,2.38219 -20.982135,4.92994 C 95.955363,595.04862 93.048149,596 90.886925,596 c -2.006844,0 -6.637656,1.125 -10.290695,2.5 -3.653038,1.375 -7.351107,2.5 -8.21793,2.5 -3.393002,0 -8.680749,3.50701 -11.166932,7.40629 -1.435587,2.25154 -4.028901,5.89371 -5.76292,8.09371 -2.61752,3.32092 -3.273027,5.23083 -3.861157,11.25 C 51.197674,631.7375 51.079348,635 51.324344,635 51.913621,635 55,625.52087 55,623.71104 55,619.68831 65.876904,604 68.665917,604 c 0.783745,0 2.529538,1.10455 3.879538,2.45455 1.851322,1.85132 2.450922,3.51018 2.439803,6.75 -0.01685,4.90917 -0.254267,5.39294 -8.788214,17.90722 -4.448889,6.5239 -6.702527,10.95553 -7.661312,15.06547 L 57.177375,652 l 2.661313,0.006 c 1.463721,0.003 3.947198,0.67681 5.518837,1.49648 l 2.857525,1.49032 -0.822262,-2.74648 C 66.940544,650.73592 66.554658,646.8 66.535263,643.5 c -0.02752,-4.68234 0.294152,-6 1.464737,-6 1.995055,0 3.031643,6.77976 3.315638,21.68581 0.122453,6.42719 0.439382,11.90254 0.704288,12.16745 0.264905,0.2649 2.703168,0.0666 5.41836,-0.44063 7.021714,-1.3118 28.004734,1.43931 27.361274,3.58737 -0.35912,1.19883 -2.8388,1.08502 -12.923198,-0.59318 -5.332014,-0.88733 -9.39004,-0.98886 -13.5,-0.33776 L 72.5,674.5 l 0.196009,5 c 0.23843,6.0821 2.26157,11.18689 5.716673,14.42431 C 79.835707,695.25769 81,696.83346 81,697.42603 c 0,0.59257 1.971942,2.12352 4.382094,3.4021 3.951531,2.09628 20.282636,16.6492 27.967016,24.92187 3.19039,3.43463 3.65089,3.74222 3.65089,2.43856 z m -10.55385,-33.27569 c -1.03052,-1.66742 1.28721,-3.57951 2.66672,-2.2 C 110.26679,693.86679 109.54459,696 108,696 c -0.48508,0 -1.18431,-0.48921 -1.55385,-1.08713 z M 114,694 c 0,-1.11111 0.66667,-2 1.5,-2 0.83333,0 1.5,0.88889 1.5,2 0,1.11111 -0.66667,2 -1.5,2 -0.83333,0 -1.5,-0.88889 -1.5,-2 z m 61,-3.5 c 0,-0.83333 0.88889,-1.5 2,-1.5 1.11111,0 2,0.66667 2,1.5 0,0.83333 -0.88889,1.5 -2,1.5 -1.11111,0 -2,-0.66667 -2,-1.5 z m -67,-4 c 0,-0.83333 0.88889,-1.5 2,-1.5 1.11111,0 2,0.66667 2,1.5 0,0.83333 -0.88889,1.5 -2,1.5 -1.11111,0 -2,-0.66667 -2,-1.5 z m 62.44615,-0.58713 c -1.03052,-1.66742 1.28721,-3.57951 2.66672,-2.2 C 174.26679,684.86679 173.54459,687 172,687 c -0.48508,0 -1.18431,-0.48921 -1.55385,-1.08713 z m 2,-6 c -1.03052,-1.66742 1.28721,-3.57951 2.66672,-2.2 C 176.26679,678.86679 175.54459,681 174,681 c -0.48508,0 -1.18431,-0.48921 -1.55385,-1.08713 z M 82.354589,654.71109 C 79.184151,651.2744 72,640.54584 72,639.24791 c 0,-0.43057 1.9125,-2.82248 4.25,-5.31535 2.3375,-2.49286 5.904573,-6.4225 7.92683,-8.73252 C 88.245147,620.5528 90,619.92205 90,623.10699 c 0,1.63602 0.391171,1.93329 1.75,1.3299 0.9625,-0.42739 3.639474,-0.96902 5.948831,-1.20361 5.556169,-0.56441 8.722959,2.42525 9.737879,9.19322 0.65563,4.37208 0.47304,5.05827 -2.0455,7.68705 -2.34367,2.44627 -3.54646,2.88645 -7.887172,2.88645 -2.955304,0 -5.942862,-0.62104 -7.062908,-1.4682 -1.067622,-0.8075 -2.680485,-1.4825 -3.584141,-1.5 -0.903656,-0.0175 -1.926749,-0.77121 -2.273539,-1.67493 -0.34679,-0.90372 -0.880891,-1.39276 -1.186891,-1.08676 -0.306001,0.306 0.215697,1.73468 1.159327,3.17484 1.938753,2.95891 3.265888,15.92913 1.7272,16.88009 -0.5314,0.32843 -2.299224,-0.84785 -3.928497,-2.61395 z M 95.5,631.9863 c 0,-2.1435 -2.905668,-1.8339 -3.327118,0.35451 -0.257366,1.3364 0.149909,1.74367 1.486305,1.48631 C 94.671634,633.63214 95.5,632.80377 95.5,631.9863 Z m 53.14974,94.01496 c 5.41764,-0.55255 11.01511,-1.47838 12.43881,-2.0574 3.28659,-1.33664 6.9174,-9.74126 6.89614,-15.96319 -0.0225,-6.58339 -0.87666,-7.39654 -7.44983,-7.09205 -4.25844,0.19725 -6.48468,-0.25148 -9.20218,-1.85484 -1.97161,-1.16328 -3.80364,-1.89615 -4.07118,-1.62861 -0.26754,0.26754 0.23917,2.61599 1.12603,5.21877 1.70904,5.01575 2.20852,15.37606 0.7413,15.37606 -0.47914,0 -1.17107,-2.3625 -1.53763,-5.25 -0.36655,-2.8875 -1.14715,-6.75106 -1.73466,-8.5857 l -1.06821,-3.33569 -2.64416,2.45315 C 137.88344,707.2347 130.57454,711 127.16214,711 c -3.43631,0 -4.01607,1.04641 -1.66214,3 0.825,0.68469 1.51001,2.65229 1.52224,4.37244 0.0298,4.19397 2.87147,7.64322 7.04989,8.55727 1.88533,0.41242 3.72025,0.59829 4.07761,0.41302 0.35736,-0.18526 5.08236,-0.78892 10.5,-1.34147 z m 201.59631,-2.94216 c 1.0035,-1.4327 2.7833,-2.02183 6.79734,-2.25 4.23519,-0.24074 5.51146,-0.69615 5.77057,-2.0591 0.22096,-1.16228 -0.29645,-1.75 -1.54064,-1.75 -3.07263,0 -4.51032,-2.08063 -2.76801,-4.00587 2.93273,-3.24063 3.55953,-12.33054 3.4353,-49.81926 -0.068,-20.52882 0.14251,-37.59132 0.46786,-37.91667 1.75441,-1.75441 0.38072,-5.13035 -2.67821,-6.58191 C 356.13577,616.97059 339.55578,612 337.46071,612 c -0.72355,0 -2.24331,1.2375 -3.37725,2.75 -3.83538,5.11583 -4.26351,5.46995 -5.32722,4.40624 -0.61067,-0.61067 -0.68529,-2.12572 -0.18879,-3.83302 0.45155,-1.55277 0.84611,-3.2609 0.87678,-3.79584 0.0307,-0.53494 -3.54423,-1.65994 -7.94423,-2.5 -7.45937,-1.42416 -8,-1.69633 -8,-4.02738 0,-2.90424 0.14438,-2.90426 10.4034,-0.002 4.07188,1.1521 7.7285,1.73626 8.12583,1.29814 1.81189,-1.99794 15.25966,-48.55799 14.76568,-51.12303 -0.35237,-1.82973 -3.63531,-2.93141 -9.15998,-3.07389 -4.02366,-0.10377 -25.89857,-6.11198 -65.13493,-17.89008 -29.78338,-8.94048 -28.22973,-8.59776 -29.32416,-6.46861 -1.11932,2.17756 -10.58613,35.39138 -12.61944,44.27467 -3.4669,15.14642 -8.5564,51.33056 -8.5564,60.83231 0,6.13063 -0.60629,11.81891 -1.62229,15.22053 -1.19104,3.98765 -1.47193,7.59456 -1.05665,13.56853 1.05053,15.11244 5.38441,27.06314 11.98941,33.06084 1.93692,1.75884 3.79309,4.05305 4.12482,5.09825 0.33173,1.0452 1.72842,2.41307 3.10374,3.03971 4.3869,1.99881 21.42123,5.96666 39.46097,9.19176 9.625,1.72073 20.2,3.75043 23.5,4.51045 9.69797,2.23352 30.65493,4.54028 35.18117,3.87244 3.60744,-0.53227 4.49936,-0.2742 6.5,1.88071 2.84631,3.06578 5.27081,3.32931 7.06488,0.76791 z M 191.56719,669.19064 C 191.33487,660.76342 189.96009,655 188.18222,655 c -0.477,0 -1.68662,1.52143 -2.68804,3.38095 -1.65745,3.0777 -1.694,3.81768 -0.40747,8.25 0.78308,2.69786 1.3843,8.86839 1.34828,13.83785 l -0.065,8.96881 2.71839,-5.77817 c 2.39643,-5.09379 2.69002,-6.80749 2.47882,-14.4688 z M 215.5,687.15399 c 4.24021,-0.57216 5.05051,-1.02989 5.33238,-3.0122 0.19201,-1.35042 -0.52643,-3.25167 -1.70133,-4.50229 -1.30359,-1.38761 -2.46616,-4.78341 -3.2383,-9.45887 -1.17252,-7.09992 -2.84292,-8.19185 -2.87744,-1.88097 -0.008,1.53981 -0.70187,4.12731 -1.54099,5.75 -3.01425,5.82891 -6.84754,2.58145 -8.32138,-7.04966 -1.40878,-9.20589 -2.9303,-14.73058 -4.87375,-17.69666 l -1.68142,-2.56616 -1.25651,5.38141 c -0.69109,2.95978 -1.27559,10.46184 -1.29889,16.67125 -0.0348,9.25965 -0.40202,11.9948 -2.04237,15.21016 -1.1,2.15618 -2,4.06666 -2,4.24551 0,0.51141 19.94914,-0.34251 25.5,-1.09152 z m -69.01008,-4.1703 c -0.34546,-0.55897 -0.99824,-0.78756 -1.45061,-0.50798 -0.45238,0.27958 -5.88018,-1.28808 -12.06178,-3.48369 C 120.28616,674.48424 121,674.66256 121,676 c 0,0.55 0.79108,1 1.75796,1 0.96687,0 3.77937,1.0621 6.25,2.36023 2.47062,1.29813 4.97597,2.18682 5.56745,1.97486 0.59147,-0.21195 2.61647,0.28334 4.5,1.10063 3.96776,1.72169 8.33959,2.04478 7.41451,0.54797 z M 152,681.5 c 1.06397,-1.28201 0.76333,-1.5 -2.06868,-1.5 -3.12825,0 -3.20501,0.0821 -1.37245,1.4682 1.06762,0.8075 1.99853,1.4825 2.06869,1.5 0.0702,0.0175 0.68775,-0.6432 1.37244,-1.4682 z m -94.622945,-4.98271 c 2.68238,-1.36088 6.441013,-2.76774 8.352519,-3.12634 l 3.475464,-0.652 -0.700775,-6.54374 c -0.894356,-8.35137 -1.081883,-8.77761 -4.481173,-10.18565 -5.969563,-2.47267 -7.202461,-1.38984 -9.667156,8.49044 -1.94356,7.7912 -2.919577,14.50944 -2.105934,14.49581 0.1375,-0.002 2.444675,-1.11763 5.127055,-2.47852 z M 165.36423,671.8753 c 3.67392,-3.42278 1.18241,-2.7296 -2.86423,0.79687 -2.52252,2.19827 -3.09984,3.03732 -1.563,2.27157 1.34035,-0.66785 3.33261,-2.04865 4.42723,-3.06844 z m 42.93064,-9.1253 c 0.51751,-5.30776 0.40339,-5.75 -1.48375,-5.75 -1.63209,0 -1.92278,0.45376 -1.44141,2.25 0.33164,1.2375 0.62281,4.5 0.64704,7.25 0.0569,6.45617 1.51743,4.052 2.27812,-3.75 z M 137,666 c 1.29003,-2.41045 -0.0317,-5.41139 -3.10856,-7.0581 -3.07735,-1.64695 -3.46289,-0.36244 -0.4782,1.59321 2.85182,1.86858 3.43779,5.20109 1.07403,6.10815 -0.83201,0.31927 -2.18201,0.025 -3,-0.65383 -0.818,-0.67888 -1.48727,-0.80422 -1.48727,-0.27854 0,2.9228 5.46959,3.1487 7,0.28911 z m 20.43242,-2.68448 c 0.31392,-0.81807 0.13374,-2.23623 -0.40042,-3.15146 -0.79825,-1.36776 -0.9766,-1.17439 -1.00159,1.08594 -0.0233,2.10341 -0.5165,2.75 -2.0978,2.75 -1.68045,0 -1.93905,-0.42111 -1.38172,-2.25 0.37712,-1.2375 1.37719,-3.0375 2.22238,-4 1.75935,-2.00355 7.23929,-2.33744 9.02673,-0.55 0.89306,0.89306 1.2,0.90206 1.2,0.0352 C 165,655.77905 161.7789,654 159.14247,654 155.86525,654 151,658.78345 151,662.00556 c 0,1.55528 0.5625,3.01703 1.25,3.24835 1.9647,0.66105 4.55699,-0.30855 5.18242,-1.93839 z m -32.38276,-0.8412 C 126.67235,661.6352 128,660.72364 128,660.44864 c 0,-0.275 -1.2375,0.12481 -2.75,0.88847 -1.5125,0.76367 -3.425,1.6397 -4.25,1.94674 -1.00761,0.375 -1.07337,0.58417 -0.20034,0.6372 0.71481,0.0434 2.62731,-0.60761 4.25,-1.44673 z m 21.23245,-12.37719 c 0.43016,-0.41875 -1.59484,-0.75341 -4.5,-0.74369 -2.90516,0.01 -6.29461,-0.34333 -7.53211,-0.78453 -1.34291,-0.47877 -2.25,-0.40928 -2.25,0.17238 0,2.3709 12.06297,3.51607 14.28211,1.35584 z m 63.01702,-22.20277 c -0.43952,-0.44215 -0.5787,2.66324 -0.30929,6.90087 l 0.48984,7.70477 0.30929,-6.90087 c 0.17011,-3.79548 -0.0503,-7.26263 -0.48984,-7.70477 z m -42.47581,-7.22723 C 167.01039,619.70256 166.50849,619 165.63234,619 c -1.85773,0 -2.97896,1.63015 -2.09972,3.05279 0.90454,1.46356 2.90118,0.62281 3.2907,-1.38566 z M 205.27611,619.25 c -1.99374,-4.41997 -8.32956,-13.25 -9.50728,-13.25 -0.80245,0 0.0631,1.73944 4.56918,9.18221 2.12305,3.50669 5.59761,7.81779 6.3008,7.81779 0.18086,0 -0.43236,-1.6875 -1.3627,-3.75 z m 158.58517,-24.5 c 0.67228,-10.5875 1.48753,-23.11671 1.81166,-27.84269 0.66884,-9.75176 1.01111,-9.30311 -7.95135,-10.42289 l -5.59195,-0.69867 -2.46898,8.35713 c -10.27164,34.76798 -12.68066,43.15976 -12.43781,43.32692 0.15243,0.10492 2.90658,0.75879 6.12033,1.45305 3.21374,0.69426 8.16374,2.08775 11,3.09665 8.81972,3.13732 8.14453,4.36236 9.5181,-17.2695 z M 750.69777,490.36443 C 748.10497,487.77164 753.40105,484 759.63462,484 c 5.03328,0 11.29524,-3.19062 15.7844,-8.04252 4.09455,-4.42542 4.09305,-4.93329 -0.0388,-13.15506 -1.29842,-2.58366 -3.7324,-9.78366 -5.40883,-16 -1.80701,-6.70053 -4.3265,-13.33822 -6.18795,-16.30242 -10.14478,-16.15465 -14.11529,-23.42216 -19.57588,-35.83113 -10.37755,-23.58254 -15.35182,-31.62723 -25.56674,-41.34805 -10.9311,-10.40236 -18.55358,-16.51656 -19.99283,-16.03681 -0.59256,0.19752 -2.15757,-0.9246 -3.47779,-2.4936 -3.28917,-3.90895 -9.39404,-7.96945 -19.84503,-13.19942 -15.95893,-7.9863 -30.71086,-11.24858 -55.53002,-12.28004 -14.14283,-0.58776 -14.66527,-0.6851 -13.66898,-2.54668 2.29799,-4.29384 -0.2303,-2.34359 -8.04162,6.20306 C 586.2875,325.87491 565.87332,340 559.01578,340 c -1.48647,0 -5.36063,0.93555 -8.60923,2.079 -4.80826,1.69242 -7.11519,1.94754 -12.40655,1.37201 -3.575,-0.38884 -9.16466,-0.98689 -12.42146,-1.329 -6.53659,-0.68663 -8.19352,-2.42905 -4.08847,-4.29944 2.05938,-0.93832 4.19039,-0.9415 9.59711,-0.0143 9.55332,1.63821 12.68057,1.50801 19.41282,-0.80822 3.19721,-1.1 6.94377,-2 8.32569,-2 3.09499,0 11.40015,-4.61138 20.67431,-11.47927 8.83812,-6.54498 21.66386,-20.63458 28.23811,-31.02073 4.5342,-7.16322 5.49429,-9.74466 9.17895,-24.67983 3.89724,-15.79679 4.16025,-17.82295 4.96807,-38.27269 0.90683,-22.95588 0.54148,-27.84164 -2.12029,-28.35425 -0.91061,-0.17537 -6.51772,0.86555 -12.46024,2.31315 -5.94253,1.4476 -14.0566,2.89002 -18.03127,3.20538 -6.18682,0.49088 -7.31976,0.33083 -7.87354,-1.11231 -0.96245,-2.50811 -0.0209,-2.94545 7.98872,-3.71053 4.01991,-0.38397 12.777,-1.96712 19.46021,-3.51809 L 621,195.55088 v -9.21034 c 0,-5.06569 0.41534,-10.30277 0.92298,-11.63795 0.84192,-2.21443 0.31298,-2.89136 -6.02331,-7.70846 -3.82046,-2.90446 -7.0483,-5.10383 -7.17298,-4.88749 -0.12468,0.21635 -0.70884,1.26658 -1.29813,2.33384 -1.64112,2.97221 -3.10953,2.95292 -5.62751,-0.0739 -8.67537,-10.42856 -18.47214,-18.99965 -20.78936,-18.18839 -0.50557,0.177 2.27457,5.64782 6.17808,12.15737 5.12225,8.54196 7.12691,12.85529 7.20375,15.5 0.17128,5.89469 -2.59348,5.29085 -13.43074,-2.93335 -5.20453,-3.94963 -18.14217,-12.98527 -28.7503,-20.0792 C 531.4076,136.91026 526.85735,133.01722 522.69383,125.56787 519.44346,119.75234 519.21893,117 521.99488,117 c 1.40002,0 2.66021,1.4164 4.22614,4.75 3.39364,7.2245 8.57795,11.70413 31.35729,27.09499 11.50693,7.77466 22.83105,15.56822 25.1647,17.31903 2.33366,1.7508 4.4206,2.99264 4.63764,2.75963 0.38249,-0.41062 -7.17025,-13.51826 -13.34617,-23.16204 -5.38687,-8.41167 -3.34261,-10.98862 5.25536,-6.62476 6.76557,3.43382 12.83537,7.77936 18.45219,13.21042 4.09635,3.96088 5.50604,4.80466 6.45,3.8607 2.00148,-2.00148 3.23805,-1.47639 12.36664,5.25122 4.8204,3.55256 9.25419,6.14006 9.85285,5.75 C 627.01018,166.81914 629.525,166.5 632,166.5 c 4.23402,0 4.61189,-0.22916 6.39302,-3.87697 1.81122,-3.70944 1.82202,-4.20735 0.25,-11.52285 -2.02669,-9.4313 -2.07709,-13.49505 -0.18682,-15.06383 2.24569,-1.86375 3.36693,-0.44064 3.32231,4.21679 -0.0511,5.33053 2.00077,13.0013 3.26816,12.21802 1.44212,-0.89128 1.13135,-16.71188 -0.54702,-27.84711 -1.86516,-12.37452 -6.01196,-24.54382 -10.84436,-31.824133 C 624.81415,79.48017 593.43924,55.517726 577.50964,49.91892 566.70261,46.120555 550.4689,44.953843 541.34734,47.319944 536.16416,48.664443 532,48.042034 532,45.922818 c 0,-0.770596 -1.21876,-0.925825 -3.75,-0.477622 -2.0625,0.365205 -5.1,0.696339 -6.75,0.735855 -13.45892,0.322322 -30.22453,5.1923 -48.33756,14.040813 -15.03277,7.343756 -26.38856,21.189729 -40.41549,49.278136 -11.27039,22.56854 -16.22475,52.05351 -9.64219,57.38374 2.57735,2.08702 1.8175,4.11626 -1.54133,4.11626 -3.39569,0 -4.58676,-2.05419 -5.75502,-9.92541 -1.33446,-8.99101 0.73295,-22.12215 5.83715,-37.07459 4.32076,-12.65741 7.12402,-18.37637 17.6461,-36 11.25246,-18.846946 17.63343,-25.033143 33.94624,-32.91003 6.74416,-3.256518 15.6371,-7.044358 19.7621,-8.417423 10.06949,-3.351772 23.84622,-5.825217 26.00638,-4.669132 1.02323,0.547615 2.06172,0.528481 2.63882,-0.04862 C 522.66235,40.937648 542.71556,37 546.87844,37 c 1.37096,0 3.47301,0.920992 4.67122,2.046649 1.64536,1.545742 4.35333,2.271867 11.06445,2.966863 10.25821,1.062331 18.04839,3.5181 27.31112,8.609533 11.50061,6.321531 29.29989,19.600383 38.22085,28.514028 13.80551,13.79419 19.67715,28.055617 22.01946,53.482307 1.62147,17.60173 -0.9207,32.38062 -5.5699,32.38062 -0.74705,0 -2.54177,1.55166 -3.98828,3.44813 -2.32706,3.05094 -3.23346,3.48291 -7.86857,3.75 l -5.23854,0.30187 -0.92989,4.42864 c -0.60628,2.8874 -0.54015,7.5856 0.19001,13.5 1.80668,14.63427 -0.10093,56.7777 -3.18709,70.41007 -4.81694,21.27768 -7.045,27.6254 -12.5172,35.66129 -1.12359,1.65 -2.04587,3.36046 -2.04949,3.80103 -0.0156,1.9015 7.95625,3.8012 22.16423,5.28172 8.38769,0.87403 19.54308,2.67723 24.78976,4.00712 11.82593,2.99754 29.63247,11.58474 38.07919,18.36368 3.4584,2.77555 6.79422,5.04645 7.41292,5.04645 1.53323,0 23.49192,19.54755 27.94174,24.87364 4.51312,5.40185 12.90783,21.04838 19.65085,36.62636 5.70598,13.18214 8.04292,17.54673 14.99211,28 6.4493,9.7013 6.53565,9.89639 9.96778,22.51901 1.68267,6.18851 4.64726,14.67839 6.58798,18.86641 3.28348,7.08565 6.35983,16.94718 6.74276,21.61458 0.11388,1.38803 -0.44788,2 -1.83591,2 -1.51967,0 -2.24192,-1.00243 -3.0073,-4.17396 -0.55401,-2.29568 -1.32962,-4.49629 -1.72357,-4.89024 -0.39395,-0.39395 -2.57786,0.96556 -4.85314,3.02113 -4.83283,4.36617 -9.46965,6.49172 -16.41599,7.52519 -2.75,0.40914 -5.69851,1.04453 -6.55223,1.41198 -0.85373,0.36746 -1.86623,0.3541 -2.25,-0.0297 z m -173.68891,-3.65429 c -3.17063,-1.60416 -3.6944,-4.29052 -1.34651,-6.9062 1.01071,-1.12599 6.22515,-5.41572 11.58765,-9.53272 5.3625,-4.11701 9.75,-7.88727 9.75,-8.37835 0,-1.90474 -11.31729,-0.72518 -30.00196,3.12699 -20.6197,4.25111 -29.26149,5.11669 -31.24829,3.12989 -2.11333,-2.11333 0.43318,-4.38101 11.95924,-10.64975 15.28988,-8.31579 26.89603,-15.92534 24.89884,-16.32488 -2.33804,-0.46773 -6.02903,0.84365 -36.10783,12.82879 -29.51814,11.76173 -32.82932,12.79759 -35.04096,10.9621 -6.49348,-5.38911 6.02437,-15.11643 70.37772,-54.68888 1.28522,-0.79032 2.13405,-1.63965 1.88629,-1.88742 -1.58065,-1.58064 -62.01516,19.85466 -106.53721,37.7873 -21.15558,8.52107 -25.8664,9.76008 -24.60436,6.47125 0.92908,-2.42115 66.18605,-28.10027 101.98562,-40.13214 20.50901,-6.89286 43.00434,-12.78691 45.62646,-11.95469 3.6737,1.16599 1.24861,3.92797 -7.70434,8.77462 -10.98969,5.94923 -51.198,31.00442 -61.48922,38.31607 -9.4325,6.70154 -15.63046,12.05075 -14.85794,12.82327 0.32736,0.32737 13.0586,-4.36662 28.29164,-10.43107 15.23304,-6.06445 30.13279,-11.73455 33.11056,-12.60021 6.55964,-1.90694 11.37377,-1.57574 12.85489,0.8844 1.88467,3.13042 -6.79038,9.6607 -30.72766,23.13071 -2.65567,1.49441 -4.66158,2.88402 -4.45757,3.08804 0.20402,0.20401 4.62685,-0.53854 9.82851,-1.65011 31.51895,-6.73547 42.42853,-7.85058 45.61895,-4.66287 3.12305,3.1204 0.68406,6.57076 -11.14431,15.7655 -10.73238,8.34278 -10.87442,8.5061 -7.66865,8.81785 3.52892,0.34318 5.30878,2.83602 3.0473,4.26798 -1.96277,1.24282 -4.97141,1.09958 -7.88686,-0.37547 z m 74.7273,-1.96014 c -2.50062,-1.89889 -3.80882,-6.39999 -4.43373,-15.25503 -0.47403,-6.71715 -0.29581,-8.25557 1.08958,-9.40535 2.3831,-1.9778 3.0929,-0.68604 3.22262,5.86481 0.17702,8.93959 1.15119,12.75107 3.41001,13.34176 2.19663,0.57443 2.62981,3.64936 0.77536,5.50381 -1.50736,1.50736 -2.0213,1.50104 -4.06384,-0.05 z M 400.6272,480.43884 c -1.03004,-2.50451 -2.94254,-5.25458 -4.25,-6.11126 -2.67472,-1.75254 -3.15802,-5.09072 -0.86447,-5.97084 2.08047,-0.79835 4.16606,1.15552 7.57238,7.09412 3.33731,5.81831 3.79284,9.55102 1.16489,9.54539 -1.13468,-0.002 -2.4085,-1.60488 -3.6228,-4.55741 z M 519.63044,366.00672 c -24.00867,-3.02173 -38.71462,-11.41007 -52.44664,-29.91582 -9.50052,-12.80324 -14.50049,-24.54107 -11.29711,-26.52087 1.21981,-0.75388 2.45514,1.08122 4.55932,6.77293 4.46808,12.08594 19.40278,29.73803 30.95113,36.58272 3.17889,1.88413 9.45249,4.54735 13.94133,5.91829 7.23356,2.20919 10.0376,2.50006 24.66153,2.55815 16.33262,0.0649 16.5913,0.0316 25.5,-3.2847 4.95,-1.84264 13.5,-5.60729 19,-8.36588 22.70494,-11.38795 33.03182,-20.75159 36.06617,-32.7021 1.36228,-5.3652 3.78166,-6.12409 4.2448,-1.33148 0.74587,7.71844 -8.40854,19.69652 -21.81097,28.53851 -9.92402,6.54718 -29.43858,15.93056 -39.92225,19.19622 -9.51543,2.96405 -22.38284,3.9466 -33.44731,2.55403 z M 508.44117,332.42659 C 500.35972,327.56586 493.12634,322.01974 482.81896,312.78101 478.04438,308.50145 473.88188,305 473.56896,305 473.25603,305 473,306.99844 473,309.44098 c 0,4.90404 -1.25775,6.41992 -3.6674,4.42009 -1.26651,-1.05111 -1.46104,-2.58272 -0.98097,-7.72367 0.57258,-6.13159 0.4014,-6.81183 -3.90666,-15.52498 -2.6375,-5.33439 -4.90113,-11.60003 -5.45978,-15.11242 -0.52487,-3.3 -1.87635,-8.61921 -3.00329,-11.82047 -2.01397,-5.72097 -4.11201,-20.97817 -3.22184,-23.42953 0.71717,-1.97494 4.04006,-1.45512 4.7371,0.74105 0.34756,1.09508 0.43466,2.33258 0.19354,2.75 -0.79356,1.37382 1.25928,14.67679 2.89474,18.75871 0.88151,2.20013 2.22626,7.25455 2.98833,11.23203 2.23304,11.65483 7.77783,21.37264 17.57692,30.80535 11.59093,11.15757 17.94439,16.32434 28.09931,22.85097 8.29688,5.33246 10.9401,8.61189 6.94117,8.61189 -0.99485,0 -4.48235,-1.60804 -7.75,-3.57341 z m 34.03066,-34.45772 c -1.70981,-1.88932 -1.72269,-2.14658 -0.1845,-3.68477 1.43583,-1.43583 1.98719,-1.47514 4.18584,-0.29846 2.17342,1.16318 3.87987,1.09021 12.04399,-0.51503 8.72865,-1.71623 9.64386,-1.73816 11.11565,-0.26637 2.17291,2.17291 0.92286,3.79246 -2.94183,3.81138 -1.75504,0.009 -5.89098,0.66756 -9.19098,1.46438 -8.56706,2.0686 -12.8246,1.92379 -15.02817,-0.51113 z M 543,290.97935 c -1.925,-0.49028 -7.02455,-1.38774 -11.33232,-1.99434 -8.47104,-1.19285 -12.27443,-2.51783 -13.05323,-4.54735 -0.85219,-2.22078 1.93908,-3.74697 4.4223,-2.41799 3.2687,1.74935 20.60293,4.41833 27.96325,4.30555 19.2415,-0.29484 25.85838,-1.78713 29.72602,-6.70404 2.25626,-2.86837 5.02526,-3.43292 5.88237,-1.19932 1.77114,4.61553 -8.3596,10.57235 -20.10355,11.82078 -13.79974,1.46695 -19.88842,1.65779 -23.50484,0.73671 z m 14.5,-20.91362 c -9.30877,-2.26372 -19.5,-8.80159 -19.5,-12.50963 0,-3.54472 2.61924,-3.89957 4.92123,-0.66672 2.22722,3.12784 12.32158,8.06524 18.06373,8.83543 5.07305,0.68044 10.51736,-2.0551 14.19552,-7.13265 2.81911,-3.89167 2.8687,-4.13699 1.13378,-5.60891 -4.38004,-3.71609 -7.13919,-13.73735 -4.27046,-15.51032 1.68184,-1.03943 3.9562,1.54442 3.9562,4.49453 0,1.51954 0.94412,3.56433 2.13663,4.62755 3.28534,2.92917 4.8041,7.27657 3.67429,10.51754 -1.39332,3.99688 -9.89772,11.54029 -14.42884,12.7984 -4.31088,1.19696 -5.51871,1.21587 -9.88208,0.15478 z m -35.12599,-9.53345 c -1.2219,-3.18422 7.46155,-9.57683 11.10803,-8.17755 2.78714,1.06953 1.53732,3.11772 -3.74645,6.13961 -6.96812,3.98522 -6.64831,3.89668 -7.36158,2.03794 z m -85.96902,-15.63742 c -1.52495,-1.68518 -1.85151,-3.36159 -1.63693,-8.40319 0.25481,-5.98686 0.0244,-6.69923 -4.66347,-14.41748 -3.82603,-6.29932 -5.20414,-9.73574 -6.14768,-15.32967 -1.4353,-8.50938 -0.62304,-22.53849 1.57284,-27.16598 C 427.66024,175.08888 432.88337,169 434.60419,169 c 2.93522,0 2.55028,3.00161 -0.90222,7.03508 C 429.56873,180.86383 428,186.32734 428,195.8936 c 0,10.37606 1.5373,15.83369 7.09499,25.1882 4.70794,7.92426 4.9839,8.77025 4.70321,14.4182 -0.27386,5.51026 -0.12047,6.02531 1.87918,6.31003 2.60094,0.37035 4.75168,2.68672 3.84969,4.14617 -1.15735,1.87263 -7.09189,1.18216 -9.12208,-1.06134 z m 23.30633,-10.32911 c -5.01198,-7.65077 -10.96201,-20.70433 -12.84378,-28.17753 -0.72631,-2.88444 -1.66399,-4.40994 -2.73625,-4.4516 -3.02081,-0.11737 -12.60729,-5.45423 -12.94473,-7.20642 -0.53517,-2.7789 2.65508,-3.18749 6.78117,-0.86849 2.09252,1.17606 4.25823,2.13829 4.81268,2.13829 0.55446,0 -0.31655,-4.11916 -1.93556,-9.1537 -3.2733,-10.17872 -3.36577,-13.3463 -0.38961,-13.3463 1.46724,0 2.15727,0.97241 2.76474,3.89615 1.20878,5.81793 10.62966,34.87537 11.86754,36.60385 0.8059,1.12529 0.87836,0.75059 0.29009,-1.5 -0.43129,-1.65 -0.8236,-9.3 -0.87182,-17 -0.0558,-8.91758 -0.52658,-14.79295 -1.29672,-16.18426 -2.50939,-4.53336 -0.39882,-8.27925 3.90005,-6.92194 C 462.85147,174.20688 464,174.07298 464,171.59048 464,168.9163 466.34982,166 468.50455,166 c 0.85,0 1.33117,-1.07316 1.28048,-2.85589 -0.0447,-1.57074 0.237,-3.37074 0.6259,-4 1.15485,-1.86857 5.95837,-1.31298 12.08894,1.39825 3.16181,1.3983 6.0033,2.2878 6.31444,1.97667 0.31113,-0.31114 0.4638,-2.6927 0.33927,-5.29237 -0.27898,-5.82373 1.97892,-14.62367 5.81251,-22.65367 4.59291,-9.62048 15.1176,-18.90606 19.51595,-17.21826 2.63396,1.01075 1.68094,2.47956 -3.94318,6.07726 -3.00363,1.9214 -6.59018,5.19954 -7.97011,7.28475 -4.28565,6.47607 -7.80274,16.3782 -8.32927,23.45056 -0.49066,6.5904 -0.4541,6.71084 3.16861,10.44103 2.01574,2.07554 3.53087,4.47009 3.36696,5.32121 -0.45767,2.3765 -3.48429,2.44433 -6.40915,0.14364 C 492.91631,168.93293 490.87741,168 489.83501,168 c -1.0424,0 -4.56816,-1.125 -7.83501,-2.5 -3.26685,-1.375 -6.17829,-2.5 -6.46987,-2.5 -1.76339,0 0.046,4.47829 3.49122,8.64112 4.2857,5.17828 4.72113,7.67724 1.42042,8.15196 -1.38134,0.19867 -3.08446,-1.00935 -5.28691,-3.75 -3.32804,-4.14131 -7.05457,-5.66001 -5.62667,-2.29308 1.71581,4.04579 1.10903,5.75213 -2.02819,5.70351 -1.65,-0.0256 -3.94655,-0.37246 -5.10345,-0.77087 -1.96644,-0.67721 -2.14509,-0.28338 -2.74289,6.04649 -1.63407,17.30266 -0.0577,29.00961 6.05777,44.98807 1.94025,5.06946 3.26304,9.90696 2.93953,10.75 -1.25126,3.26074 -4.22245,1.29934 -8.93964,-5.90145 z M 513,223.29377 c -7.75938,-2.83648 -7.75312,-11.78448 0.011,-15.79948 5.67563,-2.93498 14.54039,-0.88629 20.73896,4.79288 3.95212,3.62095 2.35794,8.5807 -3.47028,10.79658 -2.56984,0.97705 -14.77564,1.1254 -17.27972,0.21002 z m 16.86553,-5.81654 c 1.14291,-1.07108 0.97987,-1.53134 -1,-2.82307 -1.30104,-0.84884 -4.55972,-2.03289 -7.24151,-2.63122 -4.03384,-0.89999 -5.28599,-0.81922 -7.25,0.46765 -4.11045,2.69327 -2.57037,5.99698 3.12598,6.70568 4.60321,0.57271 10.8462,-0.29519 12.36553,-1.71904 z m 55.71459,4.40714 c -5.65547,-4.4486 -1.32289,-11.64441 7.55564,-12.54888 7.93672,-0.80853 15.61571,5.39405 12.49563,10.09314 -3.02693,4.5588 -15.44428,6.07959 -20.05127,2.45574 z m 13.66584,-4.01601 c 2.04764,-1.09586 2.05533,-1.17488 0.24313,-2.5 C 595.76478,212.64508 589,214.14884 589,217.7 c 0,1.6432 7.26707,1.76262 10.24596,0.16836 z M 537,203.112 c -1.375,-0.35826 -6.775,-2.06566 -12,-3.79422 -5.225,-1.72856 -12.23156,-3.70551 -15.57013,-4.39323 -5.76503,-1.18755 -6.22517,-1.13577 -9.15493,1.0303 C 497.2852,198.16526 495,198.07465 495,195.7457 495,193.37284 500.36126,189 503.27048,189 c 3.69725,0 15.70933,3.08091 27.16711,6.96794 4.91567,1.66763 9.76729,3.03206 10.78138,3.03206 2.3336,0 3.52901,2.91277 1.67675,4.08561 -1.54301,0.97703 -2.23523,0.98013 -5.89572,0.0264 z"
       id="path239" />
  </g>
</svg>
